<svg width="50" height="50" viewBox="0 0 50 50" fill="none" xmlns="http://www.w3.org/2000/svg">
<path d="M13.336 44.879C17.3631 45.7493 21.5523 45.5558 25.4789 44.318C29.4055 43.0802 32.9301 40.8421 35.6952 37.8307C37.5629 36.0591 39.0528 33.9384 40.0777 31.5928C41.1025 29.2471 41.6418 26.7237 41.6638 24.1702C41.6638 19.2914 39.0759 16.456 34.238 15.8591C31.7329 15.6503 29.2221 16.1904 27.0336 17.4088C26.4974 17.6843 25.9845 18.0172 25.2151 18.4764C26.7129 17.9254 28.2526 17.4916 29.8198 17.1792C31.2578 16.9822 32.7215 17.0759 34.1214 17.4547C36.7444 18.2583 38.05 20.8986 37.5138 23.8373C36.7381 28.0025 34.4045 31.73 30.9739 34.2835C29.2043 35.7793 27.1418 36.9015 24.914 37.5808C22.6863 38.26 20.3406 38.4818 18.0223 38.2324C16.7256 38.1532 15.4724 37.7419 14.3867 37.0392C13.301 36.3365 12.4204 35.3668 11.8322 34.2261C11.4083 33.3326 11.1693 32.3648 11.1293 31.3794C11.0893 30.3939 11.2489 29.4105 11.599 28.4864C13.1145 23.2174 16.6351 19.5784 21.1699 16.7545C25.9597 13.8931 31.4453 12.3582 37.0474 12.312C39.1575 12.2316 41.2675 12.2316 43.3658 12.312C43.5952 12.3321 43.8177 12.3998 44.0186 12.5105C44.2195 12.6213 44.3943 12.7727 44.5316 12.9548C52.9367 26.3054 45.301 44.2476 29.8548 47.4619C24.6089 48.6124 19.119 47.9051 14.3502 45.4644C13.9888 45.2808 13.6624 45.0627 13.336 44.879ZM24.8537 30.8856C26.917 28.8538 28.9338 26.8564 30.8223 25.0082L24.9936 19.1078L18.9666 25.0311L24.8537 30.8856Z" fill="#1F5FFF"/>
<path d="M43.6223 11.6806C41.2908 11.2674 39.0875 10.7967 36.8609 10.5327C28.4092 9.38474 20.4704 10.6475 13.6391 16.2035C11.0022 18.2961 8.82426 20.8942 7.23721 23.8402C5.65017 26.7862 4.68709 30.0188 4.40633 33.3422C4.40633 33.721 4.3014 34.0884 4.2198 34.6394C1.72978 29.4298 1.31849 23.4891 3.06746 17.995C4.81642 12.5008 8.59796 7.85433 13.6624 4.97665C18.5966 2.17643 24.4216 1.31132 29.9749 2.55396C35.5283 3.79661 40.4016 7.05563 43.6223 11.6806Z" fill="#FF7F27"/>
</svg>
